<?xml version="1.0" encoding="utf-8"?>
<!-- Generator: Adobe Illustrator 18.0.0, SVG Export Plug-In . SVG Version: 6.00 Build 0)  -->
<!DOCTYPE svg PUBLIC "-//W3C//DTD SVG 1.1//EN" "http://www.w3.org/Graphics/SVG/1.1/DTD/svg11.dtd">
<svg version="1.1" id="Layer_1" xmlns="http://www.w3.org/2000/svg" xmlns:xlink="http://www.w3.org/1999/xlink" x="0px" y="0px"
	 width="300px" height="300px" viewBox="0 0 300 300" style="enable-background:new 0 0 300 300;" xml:space="preserve">
<style type="text/css">
	.st0{fill:#FFFFFF;}
</style>
<g>
	<path class="st0" d="M250.4,139.8c-9.6-2.9-18.5-4.3-26.7-4.3c-8.4,0-15,1.5-19.8,4.5s-7.2,7.6-7.2,13.8s2.8,11,8.5,14.3
		s15.1,7,28.4,11.2c12.6,3.7,23,7.4,31.2,11.1c8.2,3.7,15.3,9.2,21.1,16.6c1.9,2.4,3.4,5,4.7,7.9v-90.6L277,151.7
		C268.9,146.6,260,142.6,250.4,139.8z"/>
	<path class="st0" d="M182.9,284.7c-13.3-4.5-24.5-10.8-33.5-18.9l14.3-28.5c7.9,6.9,17.6,12.5,29,16.6c11.4,4.2,22.4,6.3,32.9,6.3
		c9.1,0,16.4-1.6,21.9-4.8s8.3-8.2,8.3-15c0-5.1-1.7-9.3-5.1-12.7c-3.4-3.3-7.5-6-12.4-8s-11.9-4.4-21.2-7.2
		c-12.3-3.7-22.4-7.4-30.1-11c-7.7-3.6-14.4-8.9-20-16s-8.4-16.5-8.4-28.3c0-17.7,6.5-31.1,19.5-40.3s29.3-13.8,48.7-13.8
		c11.8,0,23.4,1.7,34.9,5.1c11,3.3,20.6,7.6,28.7,13.1V27.4c0-11-9-20-20-20H28.1c-11,0-20,9-20,20v242.5c0,11,9,20,20,20h175.8
		C196.8,288.8,189.8,287.1,182.9,284.7z"/>
	<path class="st0" d="M274.3,277.5c-9.1,6.2-19.7,10.3-31.7,12.4h47.9v-32.1C287.2,265.7,281.9,272.3,274.3,277.5z"/>
</g>
</svg>
