<?xml version="1.0" encoding="utf-8"?>
<!-- Generator: Adobe Illustrator 18.0.0, SVG Export Plug-In . SVG Version: 6.00 Build 0)  -->
<!DOCTYPE svg PUBLIC "-//W3C//DTD SVG 1.1//EN" "http://www.w3.org/Graphics/SVG/1.1/DTD/svg11.dtd">
<svg version="1.1" id="Layer_1" xmlns="http://www.w3.org/2000/svg" xmlns:xlink="http://www.w3.org/1999/xlink" x="0px" y="0px"
	 width="1024px" height="394.3px" viewBox="0 0 1024 394.3" style="enable-background:new 0 0 1024 394.3;" xml:space="preserve">
<style type="text/css">
	.st0{opacity:0.15;}
	.st1{fill:#1F2B38;}
	.st2{fill:#0971CE;}
	.st3{fill:#303030;}
	.st4{fill:#DFE2E2;}
	.st5{fill:#ECEFF0;}
	.st6{fill:#FABA25;}
	.st7{fill:#E31E26;}
	.st8{fill:#E1ECF4;}
	.st9{fill:#FFFFFF;}
	.st10{fill:#FAFDFF;}
</style>
<g>
	<g class="st0">
		<ellipse class="st1" cx="498.2" cy="342.1" rx="372.1" ry="10.2"/>
	</g>
	<g>
		<g>
			<path class="st2" d="M887.8,231.9h-0.1c1.8-11.4,1.8-23.3,0.2-35.5c-2.4-17.2-14.8-31.5-31.7-36.4l-65.6-19.3
				c-2.1-0.6-4-1.7-5.7-3.1L708.2,72c-22-18.9-50.1-29.3-79.2-29.3H152c-6.9,0-13.4,3.7-16.9,9.6c-6.4,11-11.5,24-15.5,37.8
				c-0.1,0.2-0.2,0.4-0.2,0.6c-4.2,14.7-7.3,30.5-9.4,46.1c-0.1,0.2-0.2,0.4-0.2,0.7c0,0.1,0,0.2,0.1,0.3
				c-6.7,49.2-4.7,96.7-4.2,106.1h-8.2c-4,0-7.2,3.2-7.2,7.2v22.4c0,3.7,2.7,6.7,6.4,7.2l94.4,11.4c0,0,0.1,0,0.1,0c0,0,0.1,0,0.1,0
				h11.1c2.4,29.2,26.9,52.3,56.8,52.3c29.7,0,54.2-22.9,56.7-52H327h385.2h11.1c2.6,29.1,27,52,56.7,52c29.7,0,54.2-22.9,56.7-52
				h11.1H870c19.9,0,36.1-16.2,36.1-36.1v-6.2C906,240.1,897.9,231.9,887.8,231.9z"/>
		</g>
		<g>
			<g>
				<g>
					<g>
						<path class="st3" d="M585.8,159.8c-1.9,0-3.4,1.5-3.4,3.4v19.1c0,1.9,1.5,3.4,3.4,3.4c1.9,0,3.4-1.5,3.4-3.4v-19.1
							C589.2,161.3,587.6,159.8,585.8,159.8z"/>
					</g>
				</g>
				<g>
					<g>
						<path class="st3" d="M259.1,233.5c-29.7,0-53.9,24.2-53.9,53.9c0,29.7,24.2,53.9,53.9,53.9c29.7,0,53.9-24.2,53.9-53.9
							C313,257.7,288.9,233.5,259.1,233.5z M259.1,322.3c-19.2,0-34.9-15.7-34.9-34.9c0-19.2,15.7-34.9,34.9-34.9
							c19.2,0,34.9,15.7,34.9,34.9C294,306.6,278.4,322.3,259.1,322.3z"/>
					</g>
				</g>
				<g>
					<g>
						<path class="st4" d="M259.1,255.6c-17.5,0-31.8,14.3-31.8,31.8c0,17.5,14.3,31.8,31.8,31.8c17.5,0,31.8-14.3,31.8-31.8
							C290.9,269.9,276.7,255.6,259.1,255.6z"/>
					</g>
				</g>
				<g>
					<g>
						<path class="st3" d="M259.1,218c-36.6,0-66.3,29.7-66.3,66.3v4.7h9.4c0-0.5-0.1-1.1-0.1-1.6c0-31.4,25.6-57,57-57
							s57,25.6,57,57c0,0.7-0.1,1.3-0.1,1.9h9.4v-5C325.4,247.7,295.7,218,259.1,218z"/>
					</g>
				</g>
				<g>
					<g>
						<path class="st5" d="M459.4,222.9c-6.3,0-11.4,5.1-11.4,11.4c0,6.3,5.1,11.4,11.4,11.4c6.3,0,11.4-5.1,11.4-11.4
							C470.8,228,465.7,222.9,459.4,222.9z"/>
					</g>
				</g>
				<g>
					<g>
						<g>
							<path class="st5" d="M570.3,282.9c-0.9,0-1.6-0.7-1.6-1.6V139.1H112.8c-1.1,8.2-1.9,16.2-2.6,24.1
								c-2.5,30.5-2.2,57.8-1.7,71.9c0.1,4.1,0.2,7.1,0.3,8.8h15.6c0.9,0,1.6,0.7,1.6,1.6V281l63.8,7.7v-4.5
								c0-19.2,7.8-36.6,20.5-49.2c12.6-12.4,29.8-20.2,48.9-20.2c19,0,36.3,7.7,48.9,20.2c12.7,12.6,20.5,30,20.5,49.2v5.1h382.1
								v-5.1c0-0.5,0-0.9,0-1.4H570.3z M473.9,235.1c-0.4,7.6-6.8,13.7-14.5,13.7c-7.7,0-14.1-6.1-14.5-13.7c0-0.2,0-0.5,0-0.8
								c0-8,6.5-14.5,14.5-14.5s14.5,6.5,14.5,14.5C473.9,234.6,473.9,234.8,473.9,235.1z"/>
						</g>
					</g>
				</g>
				<g>
					<g>
						<path class="st6" d="M861.1,231.9h23.5c0.8-5.2,1.3-10.4,1.4-15.8h-24.9V231.9z"/>
					</g>
				</g>
				<g>
					<g>
						<path class="st3" d="M861.1,192.3v20.8H886c0-5.3-0.4-10.7-1.2-16.2c-0.8-6.1-3-11.7-6.3-16.7h-5.4
							C866.5,180.2,861.1,185.6,861.1,192.3z"/>
					</g>
				</g>
				<g>
					<g>
						<path class="st3" d="M122.9,246.9v33.7L97,277.5c-2.1-0.2-3.6-2-3.6-4.1v-22.4c0-2.3,1.9-4.2,4.1-4.2H122.9z"/>
					</g>
				</g>
				<g>
					<g>
						<path class="st5" d="M568.7,45.8V136h-438c0.9-6.5,2-12.7,3.1-18.7c5-26.1,12.3-47.4,21.6-63.3c0.2-0.4,0.5-0.7,0.8-1.1
							c3-4.3,8-7,13.4-7H568.7z"/>
					</g>
				</g>
				<g>
					<g>
						<path class="st3" d="M152.7,52.4c1.6-2.7,3.8-4.9,6.4-6.5H152c-5.8,0-11.3,3.1-14.2,8.1c-6.1,10.4-10.9,22.5-14.8,35.4h14.3
							C141.6,75,146.7,62.6,152.7,52.4z"/>
					</g>
				</g>
				<g>
					<g>
						<path class="st7" d="M136.4,92.5h-14.3c-4,13.9-6.8,28.8-8.9,43.5h14.4C129.8,119.9,132.8,105.4,136.4,92.5z"/>
					</g>
				</g>
				<g>
					<g>
						<path class="st3" d="M780,233.5c-29.7,0-53.9,24.2-53.9,53.9c0,29.7,24.2,53.9,53.9,53.9c29.7,0,53.9-24.2,53.9-53.9
							C833.9,257.7,809.8,233.5,780,233.5z M780,322.3c-19.2,0-34.9-15.7-34.9-34.9c0-19.2,15.7-34.9,34.9-34.9
							c19.2,0,34.9,15.7,34.9,34.9C814.9,306.6,799.3,322.3,780,322.3z"/>
					</g>
				</g>
				<g>
					<g>
						<path class="st3" d="M780,218c-36.6,0-66.3,29.7-66.3,66.3v5h9.4c0-0.7-0.1-1.3-0.1-1.9c0-31.4,25.6-57,57-57
							c31.4,0,57,25.6,57,57c0,0.7-0.1,1.3-0.1,1.9h9.4v-5C846.3,247.7,816.6,218,780,218z"/>
					</g>
				</g>
				<g>
					<g>
						<path class="st3" d="M902.9,250.2v6.2c0,2-0.2,3.9-0.5,5.8c-2.8,15.4-16.3,27.1-32.4,27.1h-20.6v-5.1c0-7.7-1.3-15.1-3.6-22.1
							c-3.5-10.3-9.3-19.6-16.9-27.1h58.9C896.2,235.1,902.9,241.8,902.9,250.2z"/>
					</g>
				</g>
				<g>
					<g>
						<path class="st4" d="M811.8,287.4c0,17.6-14.3,31.8-31.8,31.8c-2.7,0-5.3-0.3-7.8-1c-13.8-3.5-24-16-24-30.9
							c0-14.9,10.2-27.4,24-30.8c2.5-0.6,5.1-1,7.8-1C797.6,255.6,811.8,269.9,811.8,287.4z"/>
					</g>
				</g>
				<g>
					<g>
						<path class="st8" d="M796.2,287.4c0,14.9-10.2,27.4-24,30.9c-13.8-3.5-24-16-24-30.9c0-14.9,10.2-27.4,24-30.8
							C786,260.1,796.2,272.6,796.2,287.4z"/>
					</g>
				</g>
				<g>
					<g>
						<path class="st8" d="M275.4,287.4c0,14.9-10.2,27.4-24,30.9c-13.8-3.5-24-16-24-30.9c0-14.9,10.2-27.4,24-30.8
							C265.2,260.1,275.4,272.6,275.4,287.4z"/>
					</g>
				</g>
				<g>
					<g>
						<path class="st8" d="M762.7,148.6c0.4-1,0.3-2.4-0.9-3.5l-28.7-24.6v30.1h26.6C761.4,150.7,762.3,149.6,762.7,148.6z"/>
					</g>
				</g>
				<g>
					<g>
						<g>
							<path class="st5" d="M855.3,163l-65.6-19.3c-2.5-0.7-4.8-2-6.9-3.7l-76.7-65.7c-11-9.5-23.6-16.7-37.1-21.5
								c-12.7-4.6-26.3-7-40-7h-57.2v233.9h139c1.1-16.8,8.2-32.1,19.2-43.5v-82.5H600.6c-6.3,0-11.4-5.1-11.4-11.4V70
								c0-5.3,4.3-9.7,9.7-9.7H629c24.8,0,48.9,8.9,67.7,25l67.1,57.4c2,1.7,2.7,4.4,1.8,6.9c-0.9,2.5-3.2,4.1-5.8,4.1h-26.6v79.4
								c12.3-11.4,28.8-18.3,46.9-18.3c17.4,0,33.3,6.5,45.5,17.1H858v-39.7c0-8.3,6.8-15.1,15.1-15.1h3.1
								C871,170.5,863.7,165.5,855.3,163z M592.2,163.2v19.1c0,3.6-2.9,6.5-6.5,6.5s-6.5-2.9-6.5-6.5v-19.1c0-3.6,2.9-6.5,6.5-6.5
								S592.2,159.6,592.2,163.2z"/>
						</g>
					</g>
				</g>
				<g>
					<g>
						<path class="st8" d="M730,118v32.7H600.6c-4.6,0-8.3-3.7-8.3-8.3V70c0-3.6,3-6.6,6.6-6.6H629c9.2,0,18.2,1.2,26.9,3.7
							c14.2,3.9,27.5,10.9,38.8,20.6l11.6,9.9L730,118z"/>
					</g>
				</g>
				<g>
					<g>
						<path class="st9" d="M706.3,97.6l-21.5,20.4c-1.8,1.7-4.1,2.5-6.4,2.5c-2.5,0-4.9-1-6.8-2.9c-3.5-3.7-3.4-9.6,0.3-13.2
							l7.2-6.8c3.7-3.5,3.9-9.4,0.3-13.2l-0.7-0.7c-3.5-3.7-9.4-3.9-13.2-0.3l-21.8,20.7c-1.8,1.7-4.1,2.5-6.4,2.5
							c-2.5,0-4.9-1-6.8-2.9c-3.5-3.8-3.4-9.6,0.3-13.2l24.9-23.6c14.2,3.9,27.5,10.9,38.8,20.6L706.3,97.6z"/>
					</g>
				</g>
				<g>
					<g>
						<path class="st9" d="M623.5,138.3l-13,12.3h-9.9c-4.6,0-8.3-3.7-8.3-8.3l18.5-17.5c1.8-1.7,4.1-2.5,6.4-2.5
							c2.5,0,4.9,1,6.7,2.9C627.4,128.9,627.3,134.8,623.5,138.3z"/>
					</g>
				</g>
				<g>
					<g>
						<path class="st4" d="M108.5,235.1h101.8c-12.7,12.6-20.5,30-20.5,49.2v4.5L126,281v-35.7c0-0.8-0.7-1.6-1.6-1.6h-15.6
							C108.7,242.2,108.6,239.2,108.5,235.1z"/>
					</g>
				</g>
				<g>
					<g>
						<path class="st4" d="M710.7,282.9c0,0.5,0,0.9,0,1.4v5.1H328.5v-5.1c0-19.2-7.8-36.6-20.5-49.2h136.9
							c0.4,7.6,6.8,13.7,14.5,13.7c7.7,0,14.1-6.1,14.5-13.7h94.9v46.3c0,0.8,0.7,1.6,1.6,1.6H710.7z"/>
					</g>
				</g>
				<g>
					<g>
						<path class="st4" d="M730,235.1v1.2c-11,11.4-18.1,26.7-19.2,43.5h-139v-44.7H730z"/>
					</g>
				</g>
				<g>
					<g>
						<path class="st10" d="M169.6,45.8h399.1v7H156.2C159.1,48.5,164.2,45.8,169.6,45.8z"/>
					</g>
				</g>
				<g>
					<g>
						<path class="st10" d="M669,52.8h-97.2v-7H629C642.7,45.8,656.3,48.2,669,52.8z"/>
					</g>
				</g>
				<g>
					<g>
						<path class="st4" d="M568.7,117.2V136h-438c0.9-6.5,2-12.7,3.1-18.7H568.7z"/>
					</g>
				</g>
				<g>
					<g>
						<path class="st4" d="M112.8,139.1h455.9v24.1H110.2C110.9,155.3,111.7,147.2,112.8,139.1z"/>
					</g>
				</g>
				<g>
					<g>
						<path class="st3" d="M902.4,262.2c-2.8,15.4-16.3,27.1-32.4,27.1h-20.6v-5.1c0-7.7-1.3-15.1-3.6-22.1H902.4z"/>
					</g>
				</g>
				<g>
					<g>
						<path class="st3" d="M122.9,261.9v18.8L97,277.5c-2.1-0.2-3.6-2-3.6-4.1v-11.5H122.9z"/>
					</g>
				</g>
			</g>
			<g>
				<g>
					<path class="st3" d="M780,344.4c-31.4,0-57-25.6-57-57s25.6-57,57-57s57,25.6,57,57S811.5,344.4,780,344.4z M780,233.5
						c-29.7,0-53.9,24.2-53.9,53.9c0,29.7,24.2,53.9,53.9,53.9c29.7,0,53.9-24.2,53.9-53.9C833.9,257.7,809.8,233.5,780,233.5z"/>
				</g>
				<g>
					<path class="st3" d="M780,322.3c-19.2,0-34.9-15.7-34.9-34.9c0-19.2,15.7-34.9,34.9-34.9c19.2,0,34.9,15.7,34.9,34.9
						C814.9,306.6,799.3,322.3,780,322.3z M780,255.6c-17.5,0-31.8,14.3-31.8,31.8c0,17.5,14.3,31.8,31.8,31.8
						c17.5,0,31.8-14.3,31.8-31.8C811.8,269.9,797.6,255.6,780,255.6z"/>
				</g>
				<g>
					<path class="st3" d="M870,292.4h-22.1c-0.9,0-1.6-0.7-1.6-1.6v-6.6c0-36.6-29.7-66.3-66.3-66.3c-36.6,0-66.3,29.7-66.3,66.3
						v6.6c0,0.9-0.7,1.6-1.6,1.6H327c-0.9,0-1.6-0.7-1.6-1.6v-6.6c0-36.6-29.7-66.3-66.3-66.3c-36.6,0-66.3,29.7-66.3,66.3v6.2
						c0,0.4-0.2,0.9-0.5,1.2c-0.3,0.3-0.8,0.4-1.2,0.4l-94.4-11.4c-3.6-0.4-6.4-3.5-6.4-7.2v-22.4c0-4,3.2-7.2,7.2-7.2h8.2
						c-0.8-15.2-5.7-131.5,29.4-191.5c3.5-5.9,9.9-9.6,16.9-9.6h477c29,0,57.1,10.4,79.1,29.3l76.7,65.7c1.7,1.4,3.6,2.5,5.7,3.1
						l65.6,19.3c16.9,5,29.3,19.3,31.7,36.4c1.7,12.1,1.6,24-0.2,35.5h0.1c10,0,18.2,8.2,18.2,18.2v6.2
						C906,276.3,889.9,292.4,870,292.4z M849.4,289.3H870c18.2,0,33-14.8,33-33v-6.2c0-8.3-6.8-15.1-15.1-15.1h-1.9
						c-0.5,0-0.9-0.2-1.2-0.6c-0.3-0.4-0.4-0.8-0.3-1.3c2-11.7,2.2-23.9,0.4-36.3c-2.2-16-13.8-29.3-29.5-33.9l-65.6-19.3
						c-2.5-0.7-4.8-2-6.9-3.7l-76.7-65.7C684.7,56,657.3,45.8,629,45.8H152c-5.8,0-11.3,3.1-14.2,8.1
						c-36.9,63.2-29,190.1-28.9,191.4c0,0.4-0.1,0.8-0.4,1.2c-0.3,0.3-0.7,0.5-1.1,0.5h-9.8c-2.3,0-4.1,1.9-4.1,4.1v22.4
						c0,2.1,1.6,3.9,3.6,4.1l92.7,11.2v-4.5c0-38.3,31.1-69.4,69.4-69.4c38.3,0,69.4,31.1,69.4,69.4v5h382.1v-5
						c0-38.3,31.1-69.4,69.4-69.4s69.4,31.1,69.4,69.4V289.3z"/>
				</g>
				<g>
					<path class="st3" d="M128.9,139.1h-17.6c-0.9,0-1.6-0.7-1.6-1.6c0-0.9,0.7-1.6,1.6-1.6h16.2c5-35.4,13.4-63.6,25.1-83.6
						c3.5-5.9,9.9-9.6,16.9-9.6c0.9,0,1.6,0.7,1.6,1.6c0,0.9-0.7,1.6-1.6,1.6c-5.8,0-11.3,3.1-14.2,8.1
						c-11.6,19.9-20,48.1-24.9,83.8C130.4,138.5,129.7,139.1,128.9,139.1z"/>
				</g>
				<g>
					<path class="st3" d="M759.8,153.8H600.6c-6.3,0-11.4-5.1-11.4-11.4V70c0-5.3,4.3-9.7,9.7-9.7H629c24.8,0,48.9,8.9,67.7,25
						l67.1,57.4c2,1.7,2.7,4.4,1.8,6.9C764.7,152.2,762.4,153.8,759.8,153.8z M598.8,63.4c-3.6,0-6.6,3-6.6,6.6v72.3
						c0,4.6,3.7,8.3,8.3,8.3h159.2c1.6,0,2.6-1.1,2.9-2c0.4-1,0.3-2.4-0.9-3.5l-67.1-57.4c-18.3-15.7-41.6-24.3-65.7-24.3H598.8z"/>
				</g>
				<g>
					<path class="st3" d="M259.1,344.4c-31.4,0-57-25.6-57-57s25.6-57,57-57c31.4,0,57,25.6,57,57S290.6,344.4,259.1,344.4z
						 M259.1,233.5c-29.7,0-53.9,24.2-53.9,53.9c0,29.7,24.2,53.9,53.9,53.9c29.7,0,53.9-24.2,53.9-53.9
						C313,257.7,288.9,233.5,259.1,233.5z"/>
				</g>
				<g>
					<path class="st3" d="M259.1,322.3c-19.2,0-34.9-15.7-34.9-34.9c0-19.2,15.7-34.9,34.9-34.9c19.2,0,34.9,15.7,34.9,34.9
						C294,306.6,278.4,322.3,259.1,322.3z M259.1,255.6c-17.5,0-31.8,14.3-31.8,31.8c0,17.5,14.3,31.8,31.8,31.8
						c17.5,0,31.8-14.3,31.8-31.8C290.9,269.9,276.7,255.6,259.1,255.6z"/>
				</g>
				<g>
					<path class="st3" d="M731.6,238.4c-0.9,0-1.6-0.7-1.6-1.6V117.2c0-0.9,0.7-1.6,1.6-1.6c0.9,0,1.6,0.7,1.6,1.6v119.6
						C733.1,237.7,732.4,238.4,731.6,238.4z"/>
				</g>
				<g>
					<path class="st3" d="M712.2,282.9H570.2c-0.9,0-1.6-0.7-1.6-1.6v-237c0-0.9,0.7-1.6,1.6-1.6c0.9,0,1.6,0.7,1.6,1.6v235.5h140.4
						c0.9,0,1.6,0.7,1.6,1.6C713.7,282.2,713,282.9,712.2,282.9z"/>
				</g>
				<g>
					<path class="st3" d="M585.8,188.8c-3.6,0-6.5-2.9-6.5-6.5v-19.1c0-3.6,2.9-6.5,6.5-6.5c3.6,0,6.5,2.9,6.5,6.5v19.1
						C592.3,185.9,589.4,188.8,585.8,188.8z M585.8,159.8c-1.9,0-3.4,1.5-3.4,3.4v19.1c0,1.9,1.5,3.4,3.4,3.4c1.9,0,3.4-1.5,3.4-3.4
						v-19.1C589.2,161.3,587.6,159.8,585.8,159.8z"/>
				</g>
				<g>
					<path class="st3" d="M138.3,92.5h-17.4c-0.9,0-1.6-0.7-1.6-1.6c0-0.9,0.7-1.6,1.6-1.6h17.4c0.9,0,1.6,0.7,1.6,1.6
						C139.8,91.8,139.2,92.5,138.3,92.5z"/>
				</g>
				<g>
					<path class="st3" d="M124.4,284c-0.9,0-1.6-0.7-1.6-1.6v-35.5h-15.5c-0.9,0-1.6-0.7-1.6-1.6s0.7-1.6,1.6-1.6h17.1
						c0.9,0,1.6,0.7,1.6,1.6v37C126,283.3,125.3,284,124.4,284z"/>
				</g>
				<g>
					<path class="st3" d="M570.2,139.1H128.9c-0.9,0-1.6-0.7-1.6-1.6c0-0.9,0.7-1.6,1.6-1.6h441.3c0.9,0,1.6,0.7,1.6,1.6
						C571.8,138.4,571.1,139.1,570.2,139.1z"/>
				</g>
				<g>
					<path class="st3" d="M459.4,248.8c-8,0-14.5-6.5-14.5-14.5s6.5-14.5,14.5-14.5s14.5,6.5,14.5,14.5S467.4,248.8,459.4,248.8z
						 M459.4,222.9c-6.3,0-11.4,5.1-11.4,11.4c0,6.3,5.1,11.4,11.4,11.4c6.3,0,11.4-5.1,11.4-11.4
						C470.8,228,465.7,222.9,459.4,222.9z"/>
				</g>
				<g>
					<path class="st3" d="M885.9,235.1H825c-0.9,0-1.6-0.7-1.6-1.6s0.7-1.6,1.6-1.6h60.9c0.9,0,1.6,0.7,1.6,1.6
						S886.7,235.1,885.9,235.1z"/>
				</g>
				<g>
					<path class="st3" d="M859.5,235.1c-0.9,0-1.6-0.7-1.6-1.6v-41.2c0-8.3,6.8-15.1,15.1-15.1h6.2c0.9,0,1.6,0.7,1.6,1.6
						s-0.7,1.6-1.6,1.6h-6.2c-6.6,0-12,5.4-12,12v41.2C861.1,234.4,860.4,235.1,859.5,235.1z"/>
				</g>
				<g>
					<path class="st3" d="M887.5,216.2h-28c-0.9,0-1.6-0.7-1.6-1.6s0.7-1.6,1.6-1.6h28c0.9,0,1.6,0.7,1.6,1.6
						S888.4,216.2,887.5,216.2z"/>
				</g>
				<g>
					<path class="st3" d="M847.9,292.4h-12.4c-0.9,0-1.6-0.7-1.6-1.6s0.7-1.6,1.6-1.6h12.4c0.9,0,1.6,0.7,1.6,1.6
						S848.7,292.4,847.9,292.4z"/>
				</g>
				<g>
					<path class="st3" d="M724.6,292.4h-12.4c-0.9,0-1.6-0.7-1.6-1.6s0.7-1.6,1.6-1.6h12.4c0.9,0,1.6,0.7,1.6,1.6
						S725.4,292.4,724.6,292.4z"/>
				</g>
				<g>
					<path class="st3" d="M327,292.4h-12.4c-0.9,0-1.6-0.7-1.6-1.6s0.7-1.6,1.6-1.6H327c0.9,0,1.6,0.7,1.6,1.6
						S327.8,292.4,327,292.4z"/>
				</g>
				<g>
					<path class="st3" d="M203.7,292.1h-12.4c-0.9,0-1.6-0.7-1.6-1.6c0-0.9,0.7-1.6,1.6-1.6h12.4c0.9,0,1.6,0.7,1.6,1.6
						C205.2,291.4,204.5,292.1,203.7,292.1z"/>
				</g>
			</g>
		</g>
	</g>
</g>
</svg>