<?xml version="1.0" encoding="utf-8"?>
<!-- Generator: Adobe Illustrator 18.0.0, SVG Export Plug-In . SVG Version: 6.00 Build 0)  -->
<!DOCTYPE svg PUBLIC "-//W3C//DTD SVG 1.1//EN" "http://www.w3.org/Graphics/SVG/1.1/DTD/svg11.dtd">
<svg version="1.1" id="Layer_1" xmlns="http://www.w3.org/2000/svg" xmlns:xlink="http://www.w3.org/1999/xlink" x="0px" y="0px"
	 width="1080px" height="1080px" viewBox="0 0 1080 1080" enable-background="new 0 0 1080 1080" xml:space="preserve">
<path fill="#2A2A2A" d="M803.9,304.7c-8.2-24.6-30.7-40.9-57.3-40.9h-450c-26.6,0-49.1,16.4-57.3,40.9l-85.9,225v306.9
	c0,22.5,18.4,40.9,40.9,40.9h40.9c22.5,0,40.9-18.4,40.9-40.9v-20.5h491v20.5c0,22.5,18.4,40.9,40.9,40.9h40.9
	c22.5,0,40.9-18.4,40.9-40.9V529.7L803.9,304.7L803.9,304.7z M296.6,693.4c-34.8,0-61.4-26.6-61.4-61.4c0-34.8,26.6-61.4,61.4-61.4
	S358,597.2,358,632S331.3,693.4,296.6,693.4z M746.6,693.4c-34.8,0-61.4-26.6-61.4-61.4c0-34.8,26.6-61.4,61.4-61.4
	S808,597.2,808,632S781.4,693.4,746.6,693.4z M235.2,488.8l61.4-163.7h450L808,488.8H235.2z"/>
<g>
	<path fill="#2A2A2A" stroke="#000000" stroke-miterlimit="10" d="M152.8,61.5v338.7l58.3-152.7c9-27,33.8-45,63-45h495
		c29.3,0,54,18,63,45l56.9,149.2l1.3,3.5V61.5H152.8z"/>
</g>
</svg>
