<?xml version="1.0" encoding="utf-8"?>
<!-- Generator: Adobe Illustrator 18.0.0, SVG Export Plug-In . SVG Version: 6.00 Build 0)  -->
<!DOCTYPE svg PUBLIC "-//W3C//DTD SVG 1.1//EN" "http://www.w3.org/Graphics/SVG/1.1/DTD/svg11.dtd">
<svg version="1.1" id="Layer_1" xmlns="http://www.w3.org/2000/svg" xmlns:xlink="http://www.w3.org/1999/xlink" x="0px" y="0px"
	 width="1204.8px" height="1169.2px" viewBox="-124.8 0 1204.8 1169.2" enable-background="new -124.8 0 1204.8 1169.2"
	 xml:space="preserve">
<path fill="#2A2A2A" d="M697.5,276.8c39.4,0,70.9-31.5,70.9-70.9S736.9,135,697.5,135c-39.4,0-70.9,31.5-70.9,70.9
	S658.1,276.8,697.5,276.8L697.5,276.8z M815.6,551.3c-108.3,0-196.9,88.6-196.9,196.9S707.3,945,815.6,945
	c108.3,0,196.9-88.6,196.9-196.9S923.9,551.3,815.6,551.3L815.6,551.3z M815.6,885.9c-76.8,0-137.8-61-137.8-137.8
	s61-137.8,137.8-137.8c76.8,0,137.8,61,137.8,137.8S892.4,885.9,815.6,885.9z M644.6,472.5H810V405H685.9l-73-126.8
	c-11.8-19.7-33.5-33.5-57.1-33.5c-17.7,0-35.4,7.9-47.2,19.7L357.2,410.1c-11.8,11.8-19.7,29.5-19.7,47.2
	c0,25.6,19.4,45.3,39.1,57.1l129.7,80.7v181.1h67.5V540l-83-67.5l90.6-93.9L644.6,472.5z M264.4,551.3
	c-108.3,0-196.9,88.6-196.9,196.9S156.1,945,264.4,945s196.9-88.6,196.9-196.9S372.7,551.3,264.4,551.3L264.4,551.3z M264.4,885.9
	c-76.8,0-137.8-61-137.8-137.8s61-137.8,137.8-137.8s137.8,61,137.8,137.8S341.2,885.9,264.4,885.9L264.4,885.9z"/>
<rect x="-55.9" y="214.4" fill="#2A2A2A" stroke="#000000" stroke-miterlimit="10" width="330.1" height="279.1"/>
</svg>
